<svg xmlns="http://www.w3.org/2000/svg" xmlns:xlink="http://www.w3.org/1999/xlink" width="500" zoomAndPan="magnify" viewBox="0 0 375 374.999991" height="500" preserveAspectRatio="xMidYMid meet" version="1.0"><defs><g/><clipPath id="7071486206"><rect x="0" width="235" y="0" height="85"/></clipPath><clipPath id="a10e6b8c13"><rect x="0" width="267" y="0" height="93"/></clipPath></defs><g transform="matrix(1, 0, 0, 1, 71, 0)"><g clip-path="url(#7071486206)"><g fill="#000000" fill-opacity="1"><g transform="translate(27.22114, 71.447598)"><g><path d="M -4.4375 -34.921875 L -15.6875 -28.65625 L -19.390625 -35.28125 L 11.25 -52.359375 L 14.953125 -45.734375 L 3.71875 -39.46875 L 19.609375 -10.921875 L 11.453125 -6.375 Z M -4.4375 -34.921875 "/></g></g></g><g fill="#000000" fill-opacity="1"><g transform="translate(55.419189, 55.943622)"><g><path d="M 3.234375 -29.546875 C 3.765625 -31.316406 4.757812 -32.859375 6.21875 -34.171875 C 7.6875 -35.492188 9.546875 -36.539062 11.796875 -37.3125 L 14.5 -29.484375 C 13.539062 -29.222656 12.898438 -29.035156 12.578125 -28.921875 C 10.148438 -28.085938 8.476562 -26.75 7.5625 -24.90625 C 6.65625 -23.070312 6.671875 -20.800781 7.609375 -18.09375 L 12.390625 -4.28125 L 3.90625 -1.359375 L -6.203125 -30.59375 L 1.90625 -33.390625 Z M 3.234375 -29.546875 "/></g></g></g><g fill="#000000" fill-opacity="1"><g transform="translate(75.449725, 48.163262)"><g><path d="M 31.65625 -20.515625 C 31.664062 -20.398438 31.734375 -19.59375 31.859375 -18.09375 L 8.75 -14.46875 C 9.445312 -12.632812 10.65625 -11.289062 12.375 -10.4375 C 14.101562 -9.59375 16.128906 -9.351562 18.453125 -9.71875 C 20.035156 -9.96875 21.40625 -10.425781 22.5625 -11.09375 C 23.71875 -11.757812 24.753906 -12.679688 25.671875 -13.859375 L 31.171875 -9.484375 C 28.796875 -5.742188 24.847656 -3.4375 19.328125 -2.5625 C 15.878906 -2.03125 12.722656 -2.226562 9.859375 -3.15625 C 7.003906 -4.082031 4.671875 -5.625 2.859375 -7.78125 C 1.046875 -9.945312 -0.09375 -12.539062 -0.5625 -15.5625 C -1.039062 -18.550781 -0.757812 -21.359375 0.28125 -23.984375 C 1.320312 -26.617188 2.972656 -28.804688 5.234375 -30.546875 C 7.503906 -32.285156 10.175781 -33.394531 13.25 -33.875 C 16.238281 -34.34375 19.046875 -34.125 21.671875 -33.21875 C 24.304688 -32.3125 26.503906 -30.757812 28.265625 -28.5625 C 30.023438 -26.375 31.15625 -23.691406 31.65625 -20.515625 Z M 14.375 -27.171875 C 12.363281 -26.847656 10.765625 -26.015625 9.578125 -24.671875 C 8.390625 -23.328125 7.800781 -21.644531 7.8125 -19.625 L 22.875 -21.984375 C 22.257812 -23.867188 21.175781 -25.28125 19.625 -26.21875 C 18.082031 -27.15625 16.332031 -27.472656 14.375 -27.171875 Z M 14.375 -27.171875 "/></g></g></g><g fill="#000000" fill-opacity="1"><g transform="translate(107.155159, 42.534263)"><g><path d="M 24.953125 -29.84375 C 28.773438 -29.59375 31.785156 -28.242188 33.984375 -25.796875 C 36.191406 -23.347656 37.148438 -19.867188 36.859375 -15.359375 L 35.703125 2.328125 L 26.734375 1.75 L 27.796875 -14.546875 C 27.953125 -16.992188 27.535156 -18.859375 26.546875 -20.140625 C 25.554688 -21.421875 24.046875 -22.125 22.015625 -22.25 C 19.765625 -22.40625 17.921875 -21.820312 16.484375 -20.5 C 15.054688 -19.1875 14.253906 -17.15625 14.078125 -14.40625 L 13.078125 0.859375 L 4.125 0.265625 L 6.140625 -30.609375 L 14.703125 -30.046875 L 14.46875 -26.421875 C 15.738281 -27.660156 17.273438 -28.578125 19.078125 -29.171875 C 20.878906 -29.765625 22.835938 -29.988281 24.953125 -29.84375 Z M 24.953125 -29.84375 "/></g></g></g><g fill="#000000" fill-opacity="1"><g transform="translate(142.565359, 44.343062)"><g><path d="M 46.5625 -30.40625 L 34.109375 10.40625 L 25.921875 7.90625 L 26.96875 4.5 C 24.050781 6.40625 20.570312 6.742188 16.53125 5.515625 C 13.757812 4.671875 11.429688 3.28125 9.546875 1.34375 C 7.660156 -0.582031 6.429688 -2.898438 5.859375 -5.609375 C 5.285156 -8.316406 5.460938 -11.191406 6.390625 -14.234375 C 7.316406 -17.285156 8.773438 -19.765625 10.765625 -21.671875 C 12.753906 -23.585938 15.066406 -24.828125 17.703125 -25.390625 C 20.335938 -25.953125 23.039062 -25.8125 25.8125 -24.96875 C 29.59375 -23.8125 32.191406 -21.71875 33.609375 -18.6875 L 37.984375 -33.03125 Z M 20.171875 -1.078125 C 22.335938 -0.410156 24.359375 -0.597656 26.234375 -1.640625 C 28.117188 -2.691406 29.441406 -4.460938 30.203125 -6.953125 C 30.960938 -9.441406 30.851562 -11.648438 29.875 -13.578125 C 28.90625 -15.503906 27.335938 -16.800781 25.171875 -17.46875 C 22.972656 -18.132812 20.929688 -17.941406 19.046875 -16.890625 C 17.160156 -15.835938 15.835938 -14.066406 15.078125 -11.578125 C 14.316406 -9.085938 14.425781 -6.878906 15.40625 -4.953125 C 16.382812 -3.035156 17.972656 -1.742188 20.171875 -1.078125 Z M 20.171875 -1.078125 "/></g></g></g><g fill="#000000" fill-opacity="1"><g transform="translate(176.793615, 54.630576)"><g><path d="M 45.53125 -9.921875 L 17.28125 11.875 C 14.289062 14.289062 11.53125 15.625 9 15.875 C 6.46875 16.125 3.910156 15.523438 1.328125 14.078125 C -0.0664062 13.296875 -1.328125 12.300781 -2.453125 11.09375 C -3.585938 9.882812 -4.375 8.648438 -4.8125 7.390625 L 1.171875 3.4375 C 1.472656 4.300781 1.929688 5.101562 2.546875 5.84375 C 3.160156 6.59375 3.851562 7.179688 4.625 7.609375 C 5.695312 8.210938 6.710938 8.441406 7.671875 8.296875 C 8.628906 8.160156 9.71875 7.640625 10.9375 6.734375 L 11.171875 6.53125 L 14.75 -27.203125 L 22.8125 -22.671875 L 20.125 -0.109375 L 38.015625 -14.140625 Z M 45.53125 -9.921875 "/></g></g></g></g></g><g transform="matrix(1, 0, 0, 1, 54, 282)"><g clip-path="url(#a10e6b8c13)"><g fill="#000000" fill-opacity="1"><g transform="translate(234.629381, 12.784829)"><g><path d="M 7.640625 34.375 L 18.265625 27.09375 L 22.546875 33.359375 L -6.40625 53.171875 L -10.6875 46.90625 L -0.0625 39.640625 L -18.515625 12.671875 L -10.8125 7.40625 Z M 7.640625 34.375 "/></g></g></g><g fill="#000000" fill-opacity="1"><g transform="translate(209.023061, 31.123107)"><g><path d="M -9.609375 37.703125 C -13.171875 39.128906 -16.472656 39.207031 -19.515625 37.9375 C -22.554688 36.675781 -24.921875 33.953125 -26.609375 29.765625 L -33.203125 13.3125 L -24.875 9.96875 L -18.796875 25.125 C -17.878906 27.40625 -16.695312 28.90625 -15.25 29.625 C -13.8125 30.351562 -12.148438 30.335938 -10.265625 29.578125 C -8.160156 28.734375 -6.742188 27.410156 -6.015625 25.609375 C -5.296875 23.816406 -5.453125 21.640625 -6.484375 19.078125 L -12.171875 4.875 L -3.84375 1.546875 L 12.046875 41.15625 L 3.71875 44.484375 L -1.859375 30.609375 C -2.515625 32.148438 -3.503906 33.53125 -4.828125 34.75 C -6.160156 35.96875 -7.753906 36.953125 -9.609375 37.703125 Z M -9.609375 37.703125 "/></g></g></g><g fill="#000000" fill-opacity="1"><g transform="translate(175.349101, 44.23665)"><g><path d="M -7.3125 28.8125 C -8.070312 30.488281 -9.265625 31.875 -10.890625 32.96875 C -12.523438 34.070312 -14.507812 34.851562 -16.84375 35.3125 L -18.453125 27.1875 C -17.460938 27.070312 -16.796875 26.976562 -16.453125 26.90625 C -13.929688 26.414062 -12.09375 25.320312 -10.9375 23.625 C -9.78125 21.9375 -9.484375 19.679688 -10.046875 16.859375 L -12.859375 2.53125 L -4.0625 0.796875 L 1.90625 31.15625 L -6.515625 32.8125 Z M -7.3125 28.8125 "/></g></g></g><g fill="#000000" fill-opacity="1"><g transform="translate(154.434039, 49.168644)"><g><path d="M -34.203125 15.9375 C -34.203125 15.820312 -34.15625 15.015625 -34.0625 13.515625 L -10.65625 13.125 C -11.101562 11.207031 -12.125 9.707031 -13.71875 8.625 C -15.3125 7.539062 -17.28125 7.019531 -19.625 7.0625 C -21.226562 7.09375 -22.644531 7.359375 -23.875 7.859375 C -25.113281 8.359375 -26.269531 9.128906 -27.34375 10.171875 L -32.1875 5.078125 C -29.320312 1.703125 -25.09375 -0.03125 -19.5 -0.125 C -16.007812 -0.1875 -12.910156 0.4375 -10.203125 1.75 C -7.503906 3.070312 -5.40625 4.925781 -3.90625 7.3125 C -2.40625 9.707031 -1.628906 12.4375 -1.578125 15.5 C -1.535156 18.53125 -2.210938 21.273438 -3.609375 23.734375 C -5.003906 26.191406 -6.941406 28.125 -9.421875 29.53125 C -11.910156 30.9375 -14.707031 31.664062 -17.8125 31.71875 C -20.84375 31.757812 -23.597656 31.148438 -26.078125 29.890625 C -28.554688 28.628906 -30.515625 26.789062 -31.953125 24.375 C -33.390625 21.96875 -34.140625 19.15625 -34.203125 15.9375 Z M -18 24.921875 C -15.96875 24.878906 -14.269531 24.273438 -12.90625 23.109375 C -11.539062 21.941406 -10.722656 20.351562 -10.453125 18.34375 L -25.703125 18.609375 C -25.347656 20.554688 -24.472656 22.101562 -23.078125 23.25 C -21.679688 24.394531 -19.988281 24.953125 -18 24.921875 Z M -18 24.921875 "/></g></g></g><g fill="#000000" fill-opacity="1"><g transform="translate(122.064586, 50.076149)"><g><path d="M -22.3125 27.65625 C -27.007812 26.75 -30.398438 24.929688 -32.484375 22.203125 C -34.566406 19.472656 -35.171875 15.847656 -34.296875 11.328125 L -30.9375 -6 L -22.703125 -4.40625 L -23.4375 -0.625 C -21.226562 -3.113281 -17.863281 -3.921875 -13.34375 -3.046875 C -11.007812 -2.585938 -9.0625 -1.800781 -7.5 -0.6875 C -5.945312 0.425781 -4.851562 1.769531 -4.21875 3.34375 C -3.59375 4.914062 -3.453125 6.585938 -3.796875 8.359375 C -4.335938 11.171875 -5.828125 13.179688 -8.265625 14.390625 C -10.710938 15.597656 -14.160156 15.769531 -18.609375 14.90625 L -25.609375 13.546875 C -25.972656 15.460938 -25.671875 17.050781 -24.703125 18.3125 C -23.742188 19.582031 -22.097656 20.441406 -19.765625 20.890625 C -18.140625 21.203125 -16.492188 21.253906 -14.828125 21.046875 C -13.171875 20.835938 -11.710938 20.410156 -10.453125 19.765625 L -8.484375 26.546875 C -10.367188 27.378906 -12.53125 27.890625 -14.96875 28.078125 C -17.414062 28.273438 -19.863281 28.132812 -22.3125 27.65625 Z M -16.703125 2.4375 C -18.210938 2.144531 -19.613281 2.234375 -20.90625 2.703125 C -22.207031 3.171875 -23.238281 4.039062 -24 5.3125 L -24.609375 8.40625 L -18.5625 9.578125 C -14.945312 10.273438 -12.910156 9.4375 -12.453125 7.0625 C -12.234375 5.9375 -12.5 4.957031 -13.25 4.125 C -14.007812 3.289062 -15.160156 2.726562 -16.703125 2.4375 Z M -16.703125 2.4375 "/></g></g></g><g fill="#000000" fill-opacity="1"><g transform="translate(91.079647, 44.755381)"><g><path d="M -49.71875 24.90625 L -32.703125 -14.21875 L -24.84375 -10.8125 L -26.265625 -7.546875 C -23.148438 -9.109375 -19.65625 -9.050781 -15.78125 -7.375 C -13.125 -6.207031 -10.972656 -4.554688 -9.328125 -2.421875 C -7.679688 -0.285156 -6.722656 2.15625 -6.453125 4.90625 C -6.191406 7.65625 -6.695312 10.488281 -7.96875 13.40625 C -9.238281 16.320312 -10.96875 18.617188 -13.15625 20.296875 C -15.351562 21.984375 -17.796875 22.953125 -20.484375 23.203125 C -23.171875 23.460938 -25.84375 23.007812 -28.5 21.84375 C -32.125 20.269531 -34.457031 17.898438 -35.5 14.734375 L -41.484375 28.484375 Z M -20.15625 -1.25 C -22.226562 -2.144531 -24.257812 -2.175781 -26.25 -1.34375 C -28.238281 -0.519531 -29.753906 1.082031 -30.796875 3.46875 C -31.835938 5.851562 -31.984375 8.054688 -31.234375 10.078125 C -30.484375 12.109375 -29.070312 13.570312 -27 14.46875 C -24.882812 15.394531 -22.832031 15.441406 -20.84375 14.609375 C -18.851562 13.773438 -17.335938 12.164062 -16.296875 9.78125 C -15.253906 7.394531 -15.109375 5.191406 -15.859375 3.171875 C -16.609375 1.148438 -18.039062 -0.320312 -20.15625 -1.25 Z M -20.15625 -1.25 "/></g></g></g><g fill="#000000" fill-opacity="1"><g transform="translate(58.175146, 30.359957)"><g><path d="M -11.625 -8.765625 C -9.53125 -7.285156 -7.660156 -5.578125 -6.015625 -3.640625 C -4.367188 -1.710938 -3.226562 0.0546875 -2.59375 1.671875 L -8.765625 5.21875 C -9.378906 3.707031 -10.328125 2.160156 -11.609375 0.578125 C -12.890625 -1.003906 -14.296875 -2.332031 -15.828125 -3.40625 C -18.929688 -5.601562 -21.019531 -5.9375 -22.09375 -4.40625 C -22.601562 -3.6875 -22.546875 -2.867188 -21.921875 -1.953125 C -21.296875 -1.035156 -20.179688 0.144531 -18.578125 1.59375 C -16.734375 3.375 -15.28125 4.941406 -14.21875 6.296875 C -13.15625 7.648438 -12.492188 9.191406 -12.234375 10.921875 C -11.984375 12.660156 -12.53125 14.484375 -13.875 16.390625 C -15.007812 17.984375 -16.472656 19.070312 -18.265625 19.65625 C -20.066406 20.25 -22.097656 20.265625 -24.359375 19.703125 C -26.617188 19.140625 -28.953125 18.007812 -31.359375 16.3125 C -33.148438 15.039062 -34.789062 13.585938 -36.28125 11.953125 C -37.78125 10.316406 -38.863281 8.742188 -39.53125 7.234375 L -33.40625 3.734375 C -32.0625 6.554688 -30.070312 8.898438 -27.4375 10.765625 C -25.875 11.867188 -24.546875 12.476562 -23.453125 12.59375 C -22.359375 12.707031 -21.566406 12.421875 -21.078125 11.734375 C -20.523438 10.941406 -20.5625 10.09375 -21.1875 9.1875 C -21.820312 8.28125 -22.960938 7.035156 -24.609375 5.453125 C -26.429688 3.640625 -27.859375 2.070312 -28.890625 0.75 C -29.929688 -0.5625 -30.570312 -2.078125 -30.8125 -3.796875 C -31.0625 -5.515625 -30.535156 -7.300781 -29.234375 -9.15625 C -28.128906 -10.71875 -26.671875 -11.773438 -24.859375 -12.328125 C -23.054688 -12.890625 -21.015625 -12.875 -18.734375 -12.28125 C -16.460938 -11.6875 -14.09375 -10.515625 -11.625 -8.765625 Z M -11.625 -8.765625 "/></g></g></g></g></g></svg>