<svg xmlns="http://www.w3.org/2000/svg" xmlns:xlink="http://www.w3.org/1999/xlink" width="500" zoomAndPan="magnify" viewBox="0 0 375 374.999991" height="500" preserveAspectRatio="xMidYMid meet" version="1.0"><defs><g/><clipPath id="dea123829f"><rect x="0" width="222" y="0" height="94"/></clipPath><clipPath id="574c776c50"><rect x="0" width="172" y="0" height="84"/></clipPath></defs><g transform="matrix(1, 0, 0, 1, 78, 0)"><g clip-path="url(#dea123829f)"><g fill="#000000" fill-opacity="1"><g transform="translate(25.087423, 79.411393)"><g><path d="M 2.640625 -45.90625 C 5.847656 -47.445312 8.894531 -48.242188 11.78125 -48.296875 C 14.664062 -48.359375 17.21875 -47.710938 19.4375 -46.359375 C 21.664062 -45.003906 23.425781 -42.976562 24.71875 -40.28125 C 25.988281 -37.613281 26.457031 -34.976562 26.125 -32.375 C 25.800781 -29.769531 24.707031 -27.375 22.84375 -25.1875 C 20.976562 -23 18.441406 -21.132812 15.234375 -19.59375 L 7.90625 -16.09375 L 12.703125 -6.09375 L 4.3125 -2.0625 L -13.078125 -38.375 Z M 11.484375 -26.234375 C 13.992188 -27.429688 15.644531 -28.890625 16.4375 -30.609375 C 17.238281 -32.328125 17.160156 -34.191406 16.203125 -36.203125 C 15.222656 -38.242188 13.8125 -39.492188 11.96875 -39.953125 C 10.132812 -40.410156 7.960938 -40.039062 5.453125 -38.84375 L -1.40625 -35.5625 L 4.625 -22.953125 Z M 11.484375 -26.234375 "/></g></g></g><g fill="#000000" fill-opacity="1"><g transform="translate(60.354829, 63.385603)"><g><path d="M -7.5625 -42.203125 L 1.078125 -44.625 L 12.625 -3.546875 L 3.984375 -1.125 Z M -7.5625 -42.203125 "/></g></g></g><g fill="#000000" fill-opacity="1"><g transform="translate(74.006828, 58.590602)"><g><path d="M 12.71875 -33.171875 C 17.476562 -33.753906 21.265625 -33.066406 24.078125 -31.109375 C 26.898438 -29.160156 28.59375 -25.898438 29.15625 -21.328125 L 31.28125 -3.796875 L 22.953125 -2.78125 L 22.484375 -6.609375 C 21.148438 -3.554688 18.203125 -1.753906 13.640625 -1.203125 C 11.273438 -0.910156 9.179688 -1.054688 7.359375 -1.640625 C 5.535156 -2.234375 4.078125 -3.175781 2.984375 -4.46875 C 1.898438 -5.769531 1.25 -7.316406 1.03125 -9.109375 C 0.6875 -11.960938 1.488281 -14.335938 3.4375 -16.234375 C 5.394531 -18.128906 8.625 -19.347656 13.125 -19.890625 L 20.1875 -20.75 C 19.945312 -22.695312 19.175781 -24.125 17.875 -25.03125 C 16.570312 -25.9375 14.742188 -26.242188 12.390625 -25.953125 C 10.742188 -25.753906 9.160156 -25.300781 7.640625 -24.59375 C 6.128906 -23.882812 4.875 -23.023438 3.875 -22.015625 L -0.09375 -27.859375 C 1.445312 -29.242188 3.347656 -30.398438 5.609375 -31.328125 C 7.878906 -32.253906 10.25 -32.867188 12.71875 -33.171875 Z M 15.15625 -7.453125 C 16.664062 -7.640625 17.96875 -8.15625 19.0625 -9 C 20.164062 -9.84375 20.878906 -10.984375 21.203125 -12.421875 L 20.8125 -15.5625 L 14.703125 -14.828125 C 11.054688 -14.378906 9.378906 -12.957031 9.671875 -10.5625 C 9.804688 -9.414062 10.363281 -8.5625 11.34375 -8 C 12.320312 -7.445312 13.59375 -7.265625 15.15625 -7.453125 Z M 15.15625 -7.453125 "/></g></g></g><g fill="#000000" fill-opacity="1"><g transform="translate(105.129269, 54.126706)"><g><path d="M 25.90625 -29.015625 C 29.71875 -28.640625 32.6875 -27.191406 34.8125 -24.671875 C 36.9375 -22.160156 37.773438 -18.65625 37.328125 -14.15625 L 35.609375 3.484375 L 26.671875 2.609375 L 28.265625 -13.640625 C 28.503906 -16.085938 28.144531 -17.960938 27.1875 -19.265625 C 26.238281 -20.578125 24.753906 -21.332031 22.734375 -21.53125 C 20.484375 -21.75 18.617188 -21.222656 17.140625 -19.953125 C 15.671875 -18.691406 14.800781 -16.6875 14.53125 -13.9375 L 13.046875 1.28125 L 4.125 0.40625 L 7.140625 -30.390625 L 15.671875 -29.5625 L 15.3125 -25.953125 C 16.625 -27.140625 18.191406 -28 20.015625 -28.53125 C 21.835938 -29.0625 23.800781 -29.222656 25.90625 -29.015625 Z M 25.90625 -29.015625 "/></g></g></g><g fill="#000000" fill-opacity="1"><g transform="translate(140.589206, 57.325162)"><g><path d="M 37.53125 -3.8125 C 37.488281 -3.695312 37.179688 -2.941406 36.609375 -1.546875 L 14.375 -8.875 C 14.175781 -6.9375 14.648438 -5.191406 15.796875 -3.640625 C 16.941406 -2.085938 18.628906 -0.945312 20.859375 -0.21875 C 22.378906 0.28125 23.804688 0.492188 25.140625 0.421875 C 26.472656 0.359375 27.816406 0.0078125 29.171875 -0.625 L 32.0625 5.78125 C 28.25 8.039062 23.6875 8.296875 18.375 6.546875 C 15.0625 5.453125 12.34375 3.835938 10.21875 1.703125 C 8.101562 -0.421875 6.726562 -2.859375 6.09375 -5.609375 C 5.46875 -8.367188 5.632812 -11.203125 6.59375 -14.109375 C 7.539062 -16.992188 9.078125 -19.363281 11.203125 -21.21875 C 13.328125 -23.082031 15.796875 -24.269531 18.609375 -24.78125 C 21.421875 -25.289062 24.300781 -25.0625 27.25 -24.09375 C 30.125 -23.144531 32.523438 -21.664062 34.453125 -19.65625 C 36.378906 -17.65625 37.625 -15.273438 38.1875 -12.515625 C 38.75 -9.765625 38.53125 -6.863281 37.53125 -3.8125 Z M 25.1875 -17.609375 C 23.257812 -18.242188 21.457031 -18.234375 19.78125 -17.578125 C 18.113281 -16.921875 16.816406 -15.695312 15.890625 -13.90625 L 30.375 -9.125 C 30.695312 -11.082031 30.382812 -12.832031 29.4375 -14.375 C 28.488281 -15.914062 27.070312 -16.992188 25.1875 -17.609375 Z M 25.1875 -17.609375 "/></g></g></g><g fill="#000000" fill-opacity="1"><g transform="translate(171.748067, 67.801327)"><g><path d="M 21.90625 10.15625 C 20.820312 10.3125 19.632812 10.226562 18.34375 9.90625 C 17.0625 9.582031 15.796875 9.082031 14.546875 8.40625 C 11.304688 6.644531 9.25 4.460938 8.375 1.859375 C 7.507812 -0.742188 7.941406 -3.648438 9.671875 -6.859375 L 15.71875 -18.03125 L 11.515625 -20.3125 L 14.8125 -26.375 L 19.015625 -24.09375 L 22.59375 -30.71875 L 30.46875 -26.453125 L 26.890625 -19.828125 L 33.671875 -16.15625 L 30.375 -10.09375 L 23.59375 -13.765625 L 17.609375 -2.6875 C 16.984375 -1.539062 16.796875 -0.5 17.046875 0.4375 C 17.304688 1.382812 17.976562 2.148438 19.0625 2.734375 C 20.300781 3.410156 21.550781 3.644531 22.8125 3.4375 Z M 21.90625 10.15625 "/></g></g></g></g></g><g transform="matrix(1, 0, 0, 1, 102, 291)"><g clip-path="url(#574c776c50)"><g fill="#000000" fill-opacity="1"><g transform="translate(151.386248, 14.710106)"><g><path d="M -11.71875 3.421875 C -9.15625 2.515625 -6.628906 2.15625 -4.140625 2.34375 C -1.648438 2.539062 0.59375 3.28125 2.59375 4.5625 L -0.203125 12.15625 C -3.242188 10.09375 -6.085938 9.53125 -8.734375 10.46875 C -12.304688 11.726562 -13.351562 14.457031 -11.875 18.65625 L -5.484375 36.71875 L 7.84375 32 L 10.34375 39.046875 L -11.71875 46.859375 L -20.4375 22.25 C -22.082031 17.582031 -22.160156 13.675781 -20.671875 10.53125 C -19.191406 7.382812 -16.207031 5.015625 -11.71875 3.421875 Z M -11.71875 3.421875 "/></g></g></g><g fill="#000000" fill-opacity="1"><g transform="translate(125.916207, 24.600773)"><g><path d="M -30.8125 35.421875 L -34.984375 4.765625 L -26.546875 3.609375 L -26.046875 7.265625 C -25.054688 5.773438 -23.789062 4.566406 -22.25 3.640625 C -20.71875 2.710938 -19.003906 2.117188 -17.109375 1.859375 C -13.078125 1.316406 -9.722656 2.039062 -7.046875 4.03125 C -4.378906 6.03125 -2.738281 9.304688 -2.125 13.859375 L 0.234375 31.1875 L -8.640625 32.40625 L -10.8125 16.390625 C -11.488281 11.453125 -13.898438 9.265625 -18.046875 9.828125 C -20.179688 10.117188 -21.800781 11.039062 -22.90625 12.59375 C -24.007812 14.15625 -24.375 16.304688 -24 19.046875 L -21.9375 34.203125 Z M -30.8125 35.421875 "/></g></g></g><g fill="#000000" fill-opacity="1"><g transform="translate(91.068462, 29.855794)"><g><path d="M -25.8125 29.09375 C -29.632812 28.726562 -32.609375 27.285156 -34.734375 24.765625 C -36.867188 22.253906 -37.722656 18.75 -37.296875 14.25 L -35.625 -3.390625 L -26.671875 -2.53125 L -28.21875 13.71875 C -28.445312 16.164062 -28.082031 18.039062 -27.125 19.34375 C -26.175781 20.644531 -24.691406 21.394531 -22.671875 21.59375 C -20.421875 21.800781 -18.5625 21.269531 -17.09375 20 C -15.625 18.738281 -14.757812 16.738281 -14.5 14 L -13.046875 -1.234375 L -4.125 -0.390625 L -7.046875 30.40625 L -15.578125 29.59375 L -15.25 25.984375 C -16.550781 27.179688 -18.109375 28.046875 -19.921875 28.578125 C -21.742188 29.117188 -23.707031 29.289062 -25.8125 29.09375 Z M -25.8125 29.09375 "/></g></g></g><g fill="#000000" fill-opacity="1"><g transform="translate(55.661589, 26.866376)"><g><path d="M -20.359375 6.03125 L -14.921875 3.34375 L -12.4375 -4.125 L -3.9375 -1.296875 L -17.375 39.203125 L -25.875 36.375 L -18.265625 13.453125 L -34.65625 21.09375 L -44.796875 17.734375 L -28.4375 9.34375 L -36.140625 -12 L -25.8125 -8.5625 Z M -20.359375 6.03125 "/></g></g></g></g></g></svg>